<?xml version="1.0" standalone="no"?><!DOCTYPE svg PUBLIC "-//W3C//DTD SVG 1.1//EN" "http://www.w3.org/Graphics/SVG/1.1/DTD/svg11.dtd"><svg t="1626160101512" class="icon" viewBox="0 0 2712 1024" version="1.1" xmlns="http://www.w3.org/2000/svg" p-id="3406" xmlns:xlink="http://www.w3.org/1999/xlink" width="529.6875" height="200"><defs><style type="text/css"></style></defs><path d="M193.76572 228.64355h214.111121a166.63852 166.63852 0 0 1 111.41529 31.971344 111.899704 111.899704 0 0 1 37.299901 89.616646 130.791861 130.791861 0 0 1-9.688286 53.285573 116.259432 116.259432 0 0 1-21.798644 33.909001 86.225746 86.225746 0 0 1-24.705129 18.407743l-15.985672 7.750629a80.412774 80.412774 0 0 1 21.798644 6.297386 63.942688 63.942688 0 0 1 21.798643 15.985672 87.678988 87.678988 0 0 1 16.470086 28.580444 126.432133 126.432133 0 0 1 6.781801 44.081701 398.67297 398.67297 0 0 0 3.875314 71.208902 96.88286 96.88286 0 0 0 18.407743 48.44143H489.258444a73.630974 73.630974 0 0 1-10.1727-31.971343v-33.909002a324.073167 324.073167 0 0 0-3.875315-53.285573 93.007546 93.007546 0 0 0-14.048014-37.299901 58.61413 58.61413 0 0 0-27.611616-21.798643 121.103575 121.103575 0 0 0-46.019358-6.781801H271.756423V678.180021H193.76572z m77.990703 204.422835h129.338618a81.866017 81.866017 0 0 0 57.160888-17.923329 69.755659 69.755659 0 0 0 19.376572-53.769987 83.31926 83.31926 0 0 0-6.297386-34.87783 50.863502 50.863502 0 0 0-17.438915-21.314229 63.458273 63.458273 0 0 0-25.189544-10.172701 167.122934 167.122934 0 0 0-29.064858-4.359728H271.756423zM850.147098 484.414301a115.775018 115.775018 0 0 0-7.266214-32.940172 87.194574 87.194574 0 0 0-16.470086-27.611616 80.897188 80.897188 0 0 0-25.189544-18.892157 74.115388 74.115388 0 0 0-32.940173-7.266215 86.225746 86.225746 0 0 0-34.393415 6.7818 78.475117 78.475117 0 0 0-26.642787 18.407744 90.10106 90.10106 0 0 0-17.438914 27.611615 96.88286 96.88286 0 0 0-7.266215 33.909001z m-167.607348 48.44143a124.97889 124.97889 0 0 0 5.328557 36.331073 90.10106 90.10106 0 0 0 15.985672 31.002515 77.506288 77.506288 0 0 0 27.127201 21.314229 89.132231 89.132231 0 0 0 39.237559 7.750629 86.225746 86.225746 0 0 0 48.44143-13.5636 79.92836 79.92836 0 0 0 28.580443-40.690802h67.818003a135.15159 135.15159 0 0 1-52.801159 82.350431 145.32429 145.32429 0 0 1-43.597287 21.31423 176.326806 176.326806 0 0 1-48.44143 7.266214 172.451491 172.451491 0 0 1-67.818003-12.594772 140.480147 140.480147 0 0 1-48.44143-35.362244 149.684019 149.684019 0 0 1-31.002515-54.254401 219.924093 219.924093 0 0 1-10.1727-69.271245 193.76572 193.76572 0 0 1 11.141529-65.880345 168.576177 168.576177 0 0 1 31.486929-54.738816 145.32429 145.32429 0 0 1 112.868532-49.894673 145.32429 145.32429 0 0 1 68.786831 15.985672 151.137262 151.137262 0 0 1 48.44143 42.628458 171.967077 171.967077 0 0 1 29.064858 60.551788A186.499506 186.499506 0 0 1 920.387172 532.855731z m295.977138-180.20212h67.818002v44.081702a88.647817 88.647817 0 0 1 42.144044-40.690802 139.995733 139.995733 0 0 1 58.614131-12.110357 155.496991 155.496991 0 0 1 66.849173 13.5636 132.245104 132.245104 0 0 1 48.44143 37.299901 161.309962 161.309962 0 0 1 28.09603 55.223231 233.487693 233.487693 0 0 1 9.203872 67.333587 238.331836 238.331836 0 0 1-7.266215 63.942688 165.669691 165.669691 0 0 1-25.673958 54.254402A125.947718 125.947718 0 0 1 1162.594322 686.899479a177.295634 177.295634 0 0 1-31.486929-2.906486 136.120419 136.120419 0 0 1-30.033687-9.203872 119.165918 119.165918 0 0 1-26.642786-15.985672 89.132231 89.132231 0 0 1-20.345401-22.767472v162.278791H978.516888z m250.442194 163.24762a161.794377 161.794377 0 0 0-5.812972-42.628459 116.259432 116.259432 0 0 0-16.470086-37.299901 87.678988 87.678988 0 0 0-28.580444-25.673958 77.021874 77.021874 0 0 0-39.237558-9.688286 78.959531 78.959531 0 0 0-68.302417 31.486929 139.026904 139.026904 0 0 0-22.767472 83.803675 166.63852 166.63852 0 0 0 5.812972 45.534944 102.695832 102.695832 0 0 0 17.923329 36.331072 89.616646 89.616646 0 0 0 28.580444 23.736301 81.866017 81.866017 0 0 0 38.753144 8.719458 80.412774 80.412774 0 0 0 41.65963-10.172701 87.678988 87.678988 0 0 0 28.096029-26.158372 106.086732 106.086732 0 0 0 15.501258-36.331073 185.530677 185.530677 0 0 0 4.844143-41.659629z m134.182761-287.257681h71.693317V678.180021h-71.693317z m422.409271 377.358741a38.26873 38.26873 0 0 0 3.3909 18.892157 14.532429 14.532429 0 0 0 13.5636 5.812972h17.923329v48.44143l-9.688286 2.906486-12.110357 2.906486h-23.251887a69.271245 69.271245 0 0 1-36.331072-8.719458 44.081701 44.081701 0 0 1-18.892158-31.002515 126.916547 126.916547 0 0 1-52.801159 30.033687 206.844907 206.844907 0 0 1-60.067373 9.203871 145.32429 145.32429 0 0 1-42.144044-5.812971 110.930875 110.930875 0 0 1-35.362244-17.438915 84.288088 84.288088 0 0 1-24.70513-29.549272 91.069889 91.069889 0 0 1-9.203871-41.65963 96.88286 96.88286 0 0 1 11.141528-48.44143 81.866017 81.866017 0 0 1 29.064858-29.549273 130.791861 130.791861 0 0 1 40.206387-15.501257q22.283058-4.844143 45.05053-7.266215a368.154869 368.154869 0 0 1 37.299902-5.328557 174.389148 174.389148 0 0 0 31.002515-5.328558 48.44143 48.44143 0 0 0 21.314229-11.625943 31.971344 31.971344 0 0 0 7.750629-23.736301 36.815487 36.815487 0 0 0-6.7818-22.767472 44.566116 44.566116 0 0 0-16.470086-12.110357 70.724488 70.724488 0 0 0-21.798644-6.297386 173.904734 173.904734 0 0 0-22.767472 0 90.10106 90.10106 0 0 0-48.44143 12.594772 48.44143 48.44143 0 0 0-21.798644 39.237558h-73.146559a108.024389 108.024389 0 0 1 15.016843-52.316744 104.633489 104.633489 0 0 1 33.909001-33.424587 138.058076 138.058076 0 0 1 48.44143-17.438915 275.631737 275.631737 0 0 1 52.801159-4.844143 222.830578 222.830578 0 0 1 48.44143 4.844143 134.182761 134.182761 0 0 1 41.65963 16.470086 90.585474 90.585474 0 0 1 30.033687 29.064858 80.412774 80.412774 0 0 1 11.141529 43.597287z m-71.693317-90.585475a87.194574 87.194574 0 0 1-40.206387 13.079186q-23.736301 0-48.44143 6.781801a153.559333 153.559333 0 0 0-21.798644 5.328557 66.364759 66.364759 0 0 0-18.892157 9.688286 41.65963 41.65963 0 0 0-13.079187 15.501258 53.769987 53.769987 0 0 0-4.844143 23.7363 30.033687 30.033687 0 0 0 6.781801 20.345401 48.44143 48.44143 0 0 0 16.470086 13.079186 77.506288 77.506288 0 0 0 21.314229 6.7818 132.729518 132.729518 0 0 0 21.314229 0 116.743847 116.743847 0 0 0 25.673958-3.3909 85.741331 85.741331 0 0 0 26.158373-10.657114 68.786831 68.786831 0 0 0 20.3454-19.376572 48.44143 48.44143 0 0 0 8.235043-28.580444zM2082.981494 461.646829a67.333588 67.333588 0 0 0-24.220715-45.534944 78.959531 78.959531 0 0 0-48.44143-15.501258 103.180246 103.180246 0 0 0-29.549272 4.844143 70.240074 70.240074 0 0 0-29.064858 17.438915 96.88286 96.88286 0 0 0-21.798644 35.846658 170.998248 170.998248 0 0 0-8.719457 60.067373 176.326806 176.326806 0 0 0 4.844143 40.206387 109.962046 109.962046 0 0 0 15.016843 35.846659 81.866017 81.866017 0 0 0 26.642787 25.673958 76.053045 76.053045 0 0 0 39.721972 9.688286 72.177731 72.177731 0 0 0 51.832331-19.376572 90.585474 90.585474 0 0 0 23.7363-54.738816h71.693317a157.919062 157.919062 0 0 1-48.44143 96.88286 145.32429 145.32429 0 0 1-101.242589 33.909001 166.63852 166.63852 0 0 1-67.818002-13.079186 145.32429 145.32429 0 0 1-48.44143-35.362244 149.684019 149.684019 0 0 1-30.518101-53.285573 207.813735 207.813735 0 0 1-10.172701-66.849174 228.159136 228.159136 0 0 1 10.172701-68.786831A157.434648 157.434648 0 0 1 1889.215774 394.313241a141.448976 141.448976 0 0 1 48.44143-37.299901 169.060591 169.060591 0 0 1 70.240074-13.563601 196.187792 196.187792 0 0 1 53.769987 7.266215 141.93339 141.93339 0 0 1 45.534944 21.798643 115.775018 115.775018 0 0 1 32.455759 36.331073 124.97889 124.97889 0 0 1 15.016843 52.316745z m354.106854 25.189544a115.775018 115.775018 0 0 0-7.266214-32.940173 87.194574 87.194574 0 0 0-16.470086-27.611615 80.897188 80.897188 0 0 0-25.189544-18.892158 74.115388 74.115388 0 0 0-32.940173-7.266214 86.225746 86.225746 0 0 0-34.393415 6.7818 78.475117 78.475117 0 0 0-26.642786 18.407743 90.10106 90.10106 0 0 0-17.438915 27.611615 96.88286 96.88286 0 0 0-7.266215 33.909002z m-167.607348 48.44143a124.97889 124.97889 0 0 0 5.328558 36.331072 90.10106 90.10106 0 0 0 15.985671 31.002515 77.506288 77.506288 0 0 0 27.127201 21.31423 89.132231 89.132231 0 0 0 39.237559 7.750629 86.225746 86.225746 0 0 0 48.44143-13.563601 79.92836 79.92836 0 0 0 28.580444-40.690801h67.818002a135.15159 135.15159 0 0 1-52.801159 82.350431 145.32429 145.32429 0 0 1-43.597287 21.314229 176.326806 176.326806 0 0 1-48.44143 7.266215 172.451491 172.451491 0 0 1-67.818002-12.594772 140.480147 140.480147 0 0 1-48.441431-35.362244 149.684019 149.684019 0 0 1-31.002515-54.254402 219.924093 219.924093 0 0 1-10.1727-69.271245 193.76572 193.76572 0 0 1 11.141529-65.880345 168.576177 168.576177 0 0 1 31.486929-54.738816 145.32429 145.32429 0 0 1 112.868532-52.316744 145.32429 145.32429 0 0 1 66.849174 15.985672 151.137262 151.137262 0 0 1 48.44143 42.628458 171.967077 171.967077 0 0 1 29.064858 60.551788 186.499506 186.499506 0 0 1 4.844143 70.724488z" fill="#229AFF" p-id="3407"></path></svg>